<mxfile host="app.diagrams.net" modified="2024-03-31T14:59:25.045Z" agent="Mozilla/5.0 (Windows NT 10.0; Win64; x64) AppleWebKit/537.36 (KHTML, like Gecko) Chrome/123.0.0.0 Safari/537.36 Edg/123.0.0.0" etag="v_WBJlKLd4BCyIGJJaHY" version="24.2.1" type="github">
  <diagram id="C5RBs43oDa-KdzZeNtuy" name="Page-1">
    <mxGraphModel dx="1605" dy="995" grid="1" gridSize="10" guides="1" tooltips="1" connect="1" arrows="1" fold="1" page="1" pageScale="1" pageWidth="827" pageHeight="1169" math="0" shadow="0">
      <root>
        <mxCell id="WIyWlLk6GJQsqaUBKTNV-0" />
        <mxCell id="WIyWlLk6GJQsqaUBKTNV-1" parent="WIyWlLk6GJQsqaUBKTNV-0" />
        <mxCell id="3gCmqSJK-W9NlK1Fc9hc-4" value="办公室" style="rounded=0;whiteSpace=wrap;html=1;" vertex="1" parent="WIyWlLk6GJQsqaUBKTNV-1">
          <mxGeometry x="140" y="270" width="120" height="60" as="geometry" />
        </mxCell>
        <mxCell id="3gCmqSJK-W9NlK1Fc9hc-5" value="教学楼" style="rounded=0;whiteSpace=wrap;html=1;" vertex="1" parent="WIyWlLk6GJQsqaUBKTNV-1">
          <mxGeometry x="140" y="370" width="120" height="60" as="geometry" />
        </mxCell>
        <mxCell id="3gCmqSJK-W9NlK1Fc9hc-6" value="校园" style="rounded=0;whiteSpace=wrap;html=1;" vertex="1" parent="WIyWlLk6GJQsqaUBKTNV-1">
          <mxGeometry x="140" y="470" width="120" height="60" as="geometry" />
        </mxCell>
        <mxCell id="3gCmqSJK-W9NlK1Fc9hc-7" value="茶水间" style="rounded=0;whiteSpace=wrap;html=1;" vertex="1" parent="WIyWlLk6GJQsqaUBKTNV-1">
          <mxGeometry x="140" y="570" width="120" height="60" as="geometry" />
        </mxCell>
        <mxCell id="3gCmqSJK-W9NlK1Fc9hc-32" style="edgeStyle=orthogonalEdgeStyle;rounded=0;orthogonalLoop=1;jettySize=auto;html=1;exitX=1;exitY=0.5;exitDx=0;exitDy=0;entryX=0;entryY=0.5;entryDx=0;entryDy=0;" edge="1" parent="WIyWlLk6GJQsqaUBKTNV-1" source="3gCmqSJK-W9NlK1Fc9hc-9" target="3gCmqSJK-W9NlK1Fc9hc-16">
          <mxGeometry relative="1" as="geometry" />
        </mxCell>
        <mxCell id="3gCmqSJK-W9NlK1Fc9hc-37" value="厨余垃圾" style="edgeLabel;html=1;align=center;verticalAlign=middle;resizable=0;points=[];" vertex="1" connectable="0" parent="3gCmqSJK-W9NlK1Fc9hc-32">
          <mxGeometry x="-0.0033" y="3" relative="1" as="geometry">
            <mxPoint as="offset" />
          </mxGeometry>
        </mxCell>
        <mxCell id="3gCmqSJK-W9NlK1Fc9hc-9" value="食堂" style="rounded=0;whiteSpace=wrap;html=1;" vertex="1" parent="WIyWlLk6GJQsqaUBKTNV-1">
          <mxGeometry x="140" y="670" width="120" height="60" as="geometry" />
        </mxCell>
        <mxCell id="3gCmqSJK-W9NlK1Fc9hc-10" value="每日由保洁员统一收集" style="rounded=0;whiteSpace=wrap;html=1;" vertex="1" parent="WIyWlLk6GJQsqaUBKTNV-1">
          <mxGeometry x="460" y="270" width="120" height="360" as="geometry" />
        </mxCell>
        <mxCell id="3gCmqSJK-W9NlK1Fc9hc-16" value="每日由帮厨统一收集" style="rounded=0;whiteSpace=wrap;html=1;" vertex="1" parent="WIyWlLk6GJQsqaUBKTNV-1">
          <mxGeometry x="460" y="670" width="120" height="60" as="geometry" />
        </mxCell>
        <mxCell id="3gCmqSJK-W9NlK1Fc9hc-17" style="edgeStyle=orthogonalEdgeStyle;rounded=0;orthogonalLoop=1;jettySize=auto;html=1;exitX=1;exitY=0.5;exitDx=0;exitDy=0;entryX=0.023;entryY=0.084;entryDx=0;entryDy=0;entryPerimeter=0;" edge="1" parent="WIyWlLk6GJQsqaUBKTNV-1" source="3gCmqSJK-W9NlK1Fc9hc-4" target="3gCmqSJK-W9NlK1Fc9hc-10">
          <mxGeometry relative="1" as="geometry" />
        </mxCell>
        <mxCell id="3gCmqSJK-W9NlK1Fc9hc-33" value="可回收物、其他垃圾" style="edgeLabel;html=1;align=center;verticalAlign=middle;resizable=0;points=[];" vertex="1" connectable="0" parent="3gCmqSJK-W9NlK1Fc9hc-17">
          <mxGeometry x="-0.0964" y="-5" relative="1" as="geometry">
            <mxPoint x="-2" as="offset" />
          </mxGeometry>
        </mxCell>
        <mxCell id="3gCmqSJK-W9NlK1Fc9hc-40" style="edgeStyle=orthogonalEdgeStyle;rounded=0;orthogonalLoop=1;jettySize=auto;html=1;exitX=1;exitY=0.5;exitDx=0;exitDy=0;entryX=0;entryY=0.5;entryDx=0;entryDy=0;" edge="1" parent="WIyWlLk6GJQsqaUBKTNV-1" source="3gCmqSJK-W9NlK1Fc9hc-18" target="3gCmqSJK-W9NlK1Fc9hc-19">
          <mxGeometry relative="1" as="geometry" />
        </mxCell>
        <mxCell id="3gCmqSJK-W9NlK1Fc9hc-18" value="存放垃圾分类收集点" style="rounded=0;whiteSpace=wrap;html=1;" vertex="1" parent="WIyWlLk6GJQsqaUBKTNV-1">
          <mxGeometry x="690" y="270" width="120" height="460" as="geometry" />
        </mxCell>
        <mxCell id="3gCmqSJK-W9NlK1Fc9hc-41" style="edgeStyle=orthogonalEdgeStyle;rounded=0;orthogonalLoop=1;jettySize=auto;html=1;exitX=1;exitY=0.5;exitDx=0;exitDy=0;entryX=0;entryY=0.5;entryDx=0;entryDy=0;" edge="1" parent="WIyWlLk6GJQsqaUBKTNV-1" source="3gCmqSJK-W9NlK1Fc9hc-19" target="3gCmqSJK-W9NlK1Fc9hc-28">
          <mxGeometry relative="1" as="geometry" />
        </mxCell>
        <mxCell id="3gCmqSJK-W9NlK1Fc9hc-42" style="edgeStyle=orthogonalEdgeStyle;rounded=0;orthogonalLoop=1;jettySize=auto;html=1;exitX=1;exitY=0.5;exitDx=0;exitDy=0;entryX=0;entryY=0.5;entryDx=0;entryDy=0;" edge="1" parent="WIyWlLk6GJQsqaUBKTNV-1" source="3gCmqSJK-W9NlK1Fc9hc-19" target="3gCmqSJK-W9NlK1Fc9hc-27">
          <mxGeometry relative="1" as="geometry" />
        </mxCell>
        <mxCell id="3gCmqSJK-W9NlK1Fc9hc-43" style="edgeStyle=orthogonalEdgeStyle;rounded=0;orthogonalLoop=1;jettySize=auto;html=1;exitX=1;exitY=0.5;exitDx=0;exitDy=0;entryX=0;entryY=0.5;entryDx=0;entryDy=0;" edge="1" parent="WIyWlLk6GJQsqaUBKTNV-1" source="3gCmqSJK-W9NlK1Fc9hc-19" target="3gCmqSJK-W9NlK1Fc9hc-26">
          <mxGeometry relative="1" as="geometry" />
        </mxCell>
        <mxCell id="3gCmqSJK-W9NlK1Fc9hc-44" style="edgeStyle=orthogonalEdgeStyle;rounded=0;orthogonalLoop=1;jettySize=auto;html=1;exitX=1;exitY=0.5;exitDx=0;exitDy=0;entryX=0;entryY=0.5;entryDx=0;entryDy=0;" edge="1" parent="WIyWlLk6GJQsqaUBKTNV-1" source="3gCmqSJK-W9NlK1Fc9hc-19" target="3gCmqSJK-W9NlK1Fc9hc-25">
          <mxGeometry relative="1" as="geometry" />
        </mxCell>
        <mxCell id="3gCmqSJK-W9NlK1Fc9hc-19" value="分类处置" style="rounded=0;whiteSpace=wrap;html=1;" vertex="1" parent="WIyWlLk6GJQsqaUBKTNV-1">
          <mxGeometry x="930" y="270" width="120" height="460" as="geometry" />
        </mxCell>
        <mxCell id="3gCmqSJK-W9NlK1Fc9hc-45" style="edgeStyle=orthogonalEdgeStyle;rounded=0;orthogonalLoop=1;jettySize=auto;html=1;exitX=0.5;exitY=1;exitDx=0;exitDy=0;entryX=0.5;entryY=0;entryDx=0;entryDy=0;" edge="1" parent="WIyWlLk6GJQsqaUBKTNV-1" source="3gCmqSJK-W9NlK1Fc9hc-20" target="3gCmqSJK-W9NlK1Fc9hc-19">
          <mxGeometry relative="1" as="geometry" />
        </mxCell>
        <mxCell id="3gCmqSJK-W9NlK1Fc9hc-20" value="废物管理人员" style="ellipse;whiteSpace=wrap;html=1;" vertex="1" parent="WIyWlLk6GJQsqaUBKTNV-1">
          <mxGeometry x="930" y="110" width="120" height="80" as="geometry" />
        </mxCell>
        <mxCell id="3gCmqSJK-W9NlK1Fc9hc-25" value="有害垃圾" style="rounded=0;whiteSpace=wrap;html=1;" vertex="1" parent="WIyWlLk6GJQsqaUBKTNV-1">
          <mxGeometry x="1150" y="630" width="120" height="60" as="geometry" />
        </mxCell>
        <mxCell id="3gCmqSJK-W9NlK1Fc9hc-26" value="可回收物" style="rounded=0;whiteSpace=wrap;html=1;" vertex="1" parent="WIyWlLk6GJQsqaUBKTNV-1">
          <mxGeometry x="1150" y="510" width="120" height="60" as="geometry" />
        </mxCell>
        <mxCell id="3gCmqSJK-W9NlK1Fc9hc-27" value="有机物" style="rounded=0;whiteSpace=wrap;html=1;" vertex="1" parent="WIyWlLk6GJQsqaUBKTNV-1">
          <mxGeometry x="1150" y="390" width="120" height="60" as="geometry" />
        </mxCell>
        <mxCell id="3gCmqSJK-W9NlK1Fc9hc-28" value="无机物" style="rounded=0;whiteSpace=wrap;html=1;" vertex="1" parent="WIyWlLk6GJQsqaUBKTNV-1">
          <mxGeometry x="1150" y="270" width="120" height="60" as="geometry" />
        </mxCell>
        <mxCell id="3gCmqSJK-W9NlK1Fc9hc-29" style="edgeStyle=orthogonalEdgeStyle;rounded=0;orthogonalLoop=1;jettySize=auto;html=1;exitX=1;exitY=0.5;exitDx=0;exitDy=0;entryX=0;entryY=0.36;entryDx=0;entryDy=0;entryPerimeter=0;" edge="1" parent="WIyWlLk6GJQsqaUBKTNV-1" source="3gCmqSJK-W9NlK1Fc9hc-5" target="3gCmqSJK-W9NlK1Fc9hc-10">
          <mxGeometry relative="1" as="geometry" />
        </mxCell>
        <mxCell id="3gCmqSJK-W9NlK1Fc9hc-34" value="可回收物、其他垃圾" style="edgeLabel;html=1;align=center;verticalAlign=middle;resizable=0;points=[];" vertex="1" connectable="0" parent="3gCmqSJK-W9NlK1Fc9hc-29">
          <mxGeometry x="-0.1118" y="-4" relative="1" as="geometry">
            <mxPoint as="offset" />
          </mxGeometry>
        </mxCell>
        <mxCell id="3gCmqSJK-W9NlK1Fc9hc-30" style="edgeStyle=orthogonalEdgeStyle;rounded=0;orthogonalLoop=1;jettySize=auto;html=1;exitX=1;exitY=0.5;exitDx=0;exitDy=0;entryX=-0.021;entryY=0.642;entryDx=0;entryDy=0;entryPerimeter=0;" edge="1" parent="WIyWlLk6GJQsqaUBKTNV-1" source="3gCmqSJK-W9NlK1Fc9hc-6" target="3gCmqSJK-W9NlK1Fc9hc-10">
          <mxGeometry relative="1" as="geometry" />
        </mxCell>
        <mxCell id="3gCmqSJK-W9NlK1Fc9hc-35" value="可回收物、其他垃圾" style="edgeLabel;html=1;align=center;verticalAlign=middle;resizable=0;points=[];" vertex="1" connectable="0" parent="3gCmqSJK-W9NlK1Fc9hc-30">
          <mxGeometry x="-0.0632" relative="1" as="geometry">
            <mxPoint as="offset" />
          </mxGeometry>
        </mxCell>
        <mxCell id="3gCmqSJK-W9NlK1Fc9hc-31" style="edgeStyle=orthogonalEdgeStyle;rounded=0;orthogonalLoop=1;jettySize=auto;html=1;exitX=1;exitY=0.5;exitDx=0;exitDy=0;entryX=-0.021;entryY=0.918;entryDx=0;entryDy=0;entryPerimeter=0;" edge="1" parent="WIyWlLk6GJQsqaUBKTNV-1" source="3gCmqSJK-W9NlK1Fc9hc-7" target="3gCmqSJK-W9NlK1Fc9hc-10">
          <mxGeometry relative="1" as="geometry" />
        </mxCell>
        <mxCell id="3gCmqSJK-W9NlK1Fc9hc-36" value="厨余垃圾、其他垃圾" style="edgeLabel;html=1;align=center;verticalAlign=middle;resizable=0;points=[];" vertex="1" connectable="0" parent="3gCmqSJK-W9NlK1Fc9hc-31">
          <mxGeometry x="0.0517" y="1" relative="1" as="geometry">
            <mxPoint as="offset" />
          </mxGeometry>
        </mxCell>
        <mxCell id="3gCmqSJK-W9NlK1Fc9hc-38" style="edgeStyle=orthogonalEdgeStyle;rounded=0;orthogonalLoop=1;jettySize=auto;html=1;exitX=1;exitY=0.5;exitDx=0;exitDy=0;entryX=-0.049;entryY=0.394;entryDx=0;entryDy=0;entryPerimeter=0;" edge="1" parent="WIyWlLk6GJQsqaUBKTNV-1" source="3gCmqSJK-W9NlK1Fc9hc-10" target="3gCmqSJK-W9NlK1Fc9hc-18">
          <mxGeometry relative="1" as="geometry" />
        </mxCell>
        <mxCell id="3gCmqSJK-W9NlK1Fc9hc-39" style="edgeStyle=orthogonalEdgeStyle;rounded=0;orthogonalLoop=1;jettySize=auto;html=1;exitX=1;exitY=0.5;exitDx=0;exitDy=0;entryX=-0.012;entryY=0.937;entryDx=0;entryDy=0;entryPerimeter=0;" edge="1" parent="WIyWlLk6GJQsqaUBKTNV-1" source="3gCmqSJK-W9NlK1Fc9hc-16" target="3gCmqSJK-W9NlK1Fc9hc-18">
          <mxGeometry relative="1" as="geometry" />
        </mxCell>
        <mxCell id="3gCmqSJK-W9NlK1Fc9hc-66" style="edgeStyle=orthogonalEdgeStyle;rounded=0;orthogonalLoop=1;jettySize=auto;html=1;exitX=1;exitY=0.5;exitDx=0;exitDy=0;entryX=0;entryY=0.5;entryDx=0;entryDy=0;" edge="1" parent="WIyWlLk6GJQsqaUBKTNV-1" source="3gCmqSJK-W9NlK1Fc9hc-46" target="3gCmqSJK-W9NlK1Fc9hc-48">
          <mxGeometry relative="1" as="geometry" />
        </mxCell>
        <mxCell id="3gCmqSJK-W9NlK1Fc9hc-46" value="提出废物回收申请" style="rounded=0;whiteSpace=wrap;html=1;" vertex="1" parent="WIyWlLk6GJQsqaUBKTNV-1">
          <mxGeometry x="230" y="1350" width="120" height="60" as="geometry" />
        </mxCell>
        <mxCell id="3gCmqSJK-W9NlK1Fc9hc-65" style="edgeStyle=orthogonalEdgeStyle;rounded=0;orthogonalLoop=1;jettySize=auto;html=1;exitX=1;exitY=0.5;exitDx=0;exitDy=0;entryX=0;entryY=0.5;entryDx=0;entryDy=0;" edge="1" parent="WIyWlLk6GJQsqaUBKTNV-1" source="3gCmqSJK-W9NlK1Fc9hc-47" target="3gCmqSJK-W9NlK1Fc9hc-46">
          <mxGeometry relative="1" as="geometry" />
        </mxCell>
        <mxCell id="3gCmqSJK-W9NlK1Fc9hc-47" value="废物管理人员" style="ellipse;whiteSpace=wrap;html=1;" vertex="1" parent="WIyWlLk6GJQsqaUBKTNV-1">
          <mxGeometry x="70" y="1340" width="120" height="80" as="geometry" />
        </mxCell>
        <mxCell id="3gCmqSJK-W9NlK1Fc9hc-67" style="edgeStyle=orthogonalEdgeStyle;rounded=0;orthogonalLoop=1;jettySize=auto;html=1;exitX=0.5;exitY=1;exitDx=0;exitDy=0;entryX=0.5;entryY=0;entryDx=0;entryDy=0;" edge="1" parent="WIyWlLk6GJQsqaUBKTNV-1" source="3gCmqSJK-W9NlK1Fc9hc-48" target="3gCmqSJK-W9NlK1Fc9hc-49">
          <mxGeometry relative="1" as="geometry" />
        </mxCell>
        <mxCell id="3gCmqSJK-W9NlK1Fc9hc-68" value="通过" style="edgeLabel;html=1;align=center;verticalAlign=middle;resizable=0;points=[];" vertex="1" connectable="0" parent="3gCmqSJK-W9NlK1Fc9hc-67">
          <mxGeometry x="-0.0667" y="-1" relative="1" as="geometry">
            <mxPoint as="offset" />
          </mxGeometry>
        </mxCell>
        <mxCell id="3gCmqSJK-W9NlK1Fc9hc-48" value="审核" style="rhombus;whiteSpace=wrap;html=1;" vertex="1" parent="WIyWlLk6GJQsqaUBKTNV-1">
          <mxGeometry x="434" y="1340" width="80" height="80" as="geometry" />
        </mxCell>
        <mxCell id="3gCmqSJK-W9NlK1Fc9hc-71" style="edgeStyle=orthogonalEdgeStyle;rounded=0;orthogonalLoop=1;jettySize=auto;html=1;exitX=0.5;exitY=1;exitDx=0;exitDy=0;" edge="1" parent="WIyWlLk6GJQsqaUBKTNV-1" source="3gCmqSJK-W9NlK1Fc9hc-49" target="3gCmqSJK-W9NlK1Fc9hc-57">
          <mxGeometry relative="1" as="geometry" />
        </mxCell>
        <mxCell id="3gCmqSJK-W9NlK1Fc9hc-72" style="edgeStyle=orthogonalEdgeStyle;rounded=0;orthogonalLoop=1;jettySize=auto;html=1;exitX=1;exitY=0.5;exitDx=0;exitDy=0;entryX=0;entryY=0.5;entryDx=0;entryDy=0;" edge="1" parent="WIyWlLk6GJQsqaUBKTNV-1" source="3gCmqSJK-W9NlK1Fc9hc-49" target="3gCmqSJK-W9NlK1Fc9hc-51">
          <mxGeometry relative="1" as="geometry" />
        </mxCell>
        <mxCell id="3gCmqSJK-W9NlK1Fc9hc-49" value="通知回收" style="rounded=0;whiteSpace=wrap;html=1;" vertex="1" parent="WIyWlLk6GJQsqaUBKTNV-1">
          <mxGeometry x="414" y="1460" width="120" height="60" as="geometry" />
        </mxCell>
        <mxCell id="3gCmqSJK-W9NlK1Fc9hc-70" style="edgeStyle=orthogonalEdgeStyle;rounded=0;orthogonalLoop=1;jettySize=auto;html=1;exitX=1;exitY=0.5;exitDx=0;exitDy=0;" edge="1" parent="WIyWlLk6GJQsqaUBKTNV-1" source="3gCmqSJK-W9NlK1Fc9hc-50">
          <mxGeometry relative="1" as="geometry">
            <mxPoint x="410" y="1490" as="targetPoint" />
          </mxGeometry>
        </mxCell>
        <mxCell id="3gCmqSJK-W9NlK1Fc9hc-50" value="废物分类集中" style="rounded=0;whiteSpace=wrap;html=1;" vertex="1" parent="WIyWlLk6GJQsqaUBKTNV-1">
          <mxGeometry x="230" y="1460" width="120" height="60" as="geometry" />
        </mxCell>
        <mxCell id="3gCmqSJK-W9NlK1Fc9hc-73" style="edgeStyle=orthogonalEdgeStyle;rounded=0;orthogonalLoop=1;jettySize=auto;html=1;exitX=1;exitY=0.5;exitDx=0;exitDy=0;entryX=0;entryY=0.5;entryDx=0;entryDy=0;" edge="1" parent="WIyWlLk6GJQsqaUBKTNV-1" source="3gCmqSJK-W9NlK1Fc9hc-51" target="3gCmqSJK-W9NlK1Fc9hc-52">
          <mxGeometry relative="1" as="geometry" />
        </mxCell>
        <mxCell id="3gCmqSJK-W9NlK1Fc9hc-51" value="验收废物、安排分类存放" style="rounded=0;whiteSpace=wrap;html=1;" vertex="1" parent="WIyWlLk6GJQsqaUBKTNV-1">
          <mxGeometry x="590" y="1460" width="120" height="60" as="geometry" />
        </mxCell>
        <mxCell id="3gCmqSJK-W9NlK1Fc9hc-59" style="edgeStyle=orthogonalEdgeStyle;rounded=0;orthogonalLoop=1;jettySize=auto;html=1;exitX=1;exitY=0.5;exitDx=0;exitDy=0;" edge="1" parent="WIyWlLk6GJQsqaUBKTNV-1" source="3gCmqSJK-W9NlK1Fc9hc-52" target="3gCmqSJK-W9NlK1Fc9hc-56">
          <mxGeometry relative="1" as="geometry" />
        </mxCell>
        <mxCell id="3gCmqSJK-W9NlK1Fc9hc-60" value="可回收物" style="edgeLabel;html=1;align=center;verticalAlign=middle;resizable=0;points=[];" vertex="1" connectable="0" parent="3gCmqSJK-W9NlK1Fc9hc-59">
          <mxGeometry x="-0.0583" relative="1" as="geometry">
            <mxPoint as="offset" />
          </mxGeometry>
        </mxCell>
        <mxCell id="3gCmqSJK-W9NlK1Fc9hc-52" value="计量" style="rounded=0;whiteSpace=wrap;html=1;" vertex="1" parent="WIyWlLk6GJQsqaUBKTNV-1">
          <mxGeometry x="770" y="1460" width="120" height="60" as="geometry" />
        </mxCell>
        <mxCell id="3gCmqSJK-W9NlK1Fc9hc-53" value="废物量" style="shape=document;whiteSpace=wrap;html=1;boundedLbl=1;" vertex="1" parent="WIyWlLk6GJQsqaUBKTNV-1">
          <mxGeometry x="770" y="1340" width="120" height="80" as="geometry" />
        </mxCell>
        <mxCell id="3gCmqSJK-W9NlK1Fc9hc-54" value="验收单" style="shape=document;whiteSpace=wrap;html=1;boundedLbl=1;" vertex="1" parent="WIyWlLk6GJQsqaUBKTNV-1">
          <mxGeometry x="970" y="1570" width="120" height="80" as="geometry" />
        </mxCell>
        <mxCell id="3gCmqSJK-W9NlK1Fc9hc-75" style="edgeStyle=orthogonalEdgeStyle;rounded=0;orthogonalLoop=1;jettySize=auto;html=1;exitX=0.5;exitY=1;exitDx=0;exitDy=0;entryX=0.5;entryY=0;entryDx=0;entryDy=0;" edge="1" parent="WIyWlLk6GJQsqaUBKTNV-1" source="3gCmqSJK-W9NlK1Fc9hc-56" target="3gCmqSJK-W9NlK1Fc9hc-54">
          <mxGeometry relative="1" as="geometry" />
        </mxCell>
        <mxCell id="3gCmqSJK-W9NlK1Fc9hc-76" style="edgeStyle=orthogonalEdgeStyle;rounded=0;orthogonalLoop=1;jettySize=auto;html=1;exitX=1;exitY=0.5;exitDx=0;exitDy=0;entryX=0;entryY=0.5;entryDx=0;entryDy=0;" edge="1" parent="WIyWlLk6GJQsqaUBKTNV-1" source="3gCmqSJK-W9NlK1Fc9hc-56" target="3gCmqSJK-W9NlK1Fc9hc-61">
          <mxGeometry relative="1" as="geometry" />
        </mxCell>
        <mxCell id="3gCmqSJK-W9NlK1Fc9hc-56" value="废物入库" style="rounded=0;whiteSpace=wrap;html=1;" vertex="1" parent="WIyWlLk6GJQsqaUBKTNV-1">
          <mxGeometry x="970" y="1460" width="120" height="60" as="geometry" />
        </mxCell>
        <mxCell id="3gCmqSJK-W9NlK1Fc9hc-57" value="回收废物上缴申请单" style="shape=document;whiteSpace=wrap;html=1;boundedLbl=1;" vertex="1" parent="WIyWlLk6GJQsqaUBKTNV-1">
          <mxGeometry x="414" y="1580" width="120" height="80" as="geometry" />
        </mxCell>
        <mxCell id="3gCmqSJK-W9NlK1Fc9hc-69" style="edgeStyle=orthogonalEdgeStyle;rounded=0;orthogonalLoop=1;jettySize=auto;html=1;exitX=0.5;exitY=1;exitDx=0;exitDy=0;entryX=0.5;entryY=0;entryDx=0;entryDy=0;" edge="1" parent="WIyWlLk6GJQsqaUBKTNV-1" source="3gCmqSJK-W9NlK1Fc9hc-58" target="3gCmqSJK-W9NlK1Fc9hc-48">
          <mxGeometry relative="1" as="geometry" />
        </mxCell>
        <mxCell id="3gCmqSJK-W9NlK1Fc9hc-58" value="学校" style="ellipse;whiteSpace=wrap;html=1;" vertex="1" parent="WIyWlLk6GJQsqaUBKTNV-1">
          <mxGeometry x="414" y="1220" width="120" height="80" as="geometry" />
        </mxCell>
        <mxCell id="3gCmqSJK-W9NlK1Fc9hc-77" style="edgeStyle=orthogonalEdgeStyle;rounded=0;orthogonalLoop=1;jettySize=auto;html=1;exitX=1;exitY=0.5;exitDx=0;exitDy=0;entryX=0;entryY=0.5;entryDx=0;entryDy=0;" edge="1" parent="WIyWlLk6GJQsqaUBKTNV-1" source="3gCmqSJK-W9NlK1Fc9hc-61" target="3gCmqSJK-W9NlK1Fc9hc-63">
          <mxGeometry relative="1" as="geometry" />
        </mxCell>
        <mxCell id="3gCmqSJK-W9NlK1Fc9hc-61" value="提交废物销售申请" style="rhombus;whiteSpace=wrap;html=1;" vertex="1" parent="WIyWlLk6GJQsqaUBKTNV-1">
          <mxGeometry x="1140" y="1450" width="80" height="80" as="geometry" />
        </mxCell>
        <mxCell id="3gCmqSJK-W9NlK1Fc9hc-78" style="edgeStyle=orthogonalEdgeStyle;rounded=0;orthogonalLoop=1;jettySize=auto;html=1;exitX=0.5;exitY=1;exitDx=0;exitDy=0;entryX=0.5;entryY=0;entryDx=0;entryDy=0;" edge="1" parent="WIyWlLk6GJQsqaUBKTNV-1" source="3gCmqSJK-W9NlK1Fc9hc-63" target="3gCmqSJK-W9NlK1Fc9hc-64">
          <mxGeometry relative="1" as="geometry" />
        </mxCell>
        <mxCell id="3gCmqSJK-W9NlK1Fc9hc-63" value="废物出库" style="rounded=0;whiteSpace=wrap;html=1;" vertex="1" parent="WIyWlLk6GJQsqaUBKTNV-1">
          <mxGeometry x="1270" y="1460" width="120" height="60" as="geometry" />
        </mxCell>
        <mxCell id="3gCmqSJK-W9NlK1Fc9hc-64" value="结算单" style="shape=document;whiteSpace=wrap;html=1;boundedLbl=1;" vertex="1" parent="WIyWlLk6GJQsqaUBKTNV-1">
          <mxGeometry x="1270" y="1570" width="120" height="80" as="geometry" />
        </mxCell>
        <mxCell id="3gCmqSJK-W9NlK1Fc9hc-74" style="edgeStyle=orthogonalEdgeStyle;rounded=0;orthogonalLoop=1;jettySize=auto;html=1;exitX=0.5;exitY=0;exitDx=0;exitDy=0;entryX=0.494;entryY=0.892;entryDx=0;entryDy=0;entryPerimeter=0;" edge="1" parent="WIyWlLk6GJQsqaUBKTNV-1" source="3gCmqSJK-W9NlK1Fc9hc-52" target="3gCmqSJK-W9NlK1Fc9hc-53">
          <mxGeometry relative="1" as="geometry" />
        </mxCell>
      </root>
    </mxGraphModel>
  </diagram>
</mxfile>
